#!OML:ASF F:\VICON\USERDATA\INSTALL\rory3\rory3.ASF
:FULLY-SPECIFIED
:DEGREES
338
root 1.32668 16.5696 28.2472 34.4934 4.775 -1.78059
lowerback -16.4387 -1.87829 2.76634
upperback -13.048 -2.72482 4.26616
thorax -4.71261 -1.39075 2.64904
lowerneck -8.75794 -0.419928 -0.828979
upperneck 44.87 0.419787 -2.27914
head 18.3499 -0.281949 -0.867118
rclavicle -2.5196e-014 -1.82882e-014
rhumerus -13.9637 -18.669 -5.70167
rradius 24.0332
rwrist 8.8092
rhand 21.5166 5.04451
rfingers 7.12502
rthumb 45.9452 -18.0728
lclavicle -2.5196e-014 -1.82882e-014
lhumerus 53.1975 12.0123 8.22886
lradius 39.7009
lwrist -9.21809
lhand 17.3881 12.1238
lfingers 7.12502
lthumb 42.0946 36.682
rfemur -57.2246 2.90669 33.1975
rtibia 40.0124
rfoot -43.8853 -34.9827
rtoes 31.504
lfemur -12.7213 -4.88712 -23.1365
ltibia 29.3422
lfoot -17.1825 43.7665
ltoes 49.5919
339
root 1.33019 16.5743 28.2569 34.4928 4.88494 -1.88004
lowerback -16.434 -1.85529 2.9452
upperback -13.0296 -2.71523 4.26528
thorax -4.70456 -1.3984 2.54884
lowerneck -8.76606 -0.443825 -0.906126
upperneck 44.8268 0.358306 -2.17469
head 18.323 -0.306165 -0.812652
rclavicle -1.9133e-015 -1.11319e-014
rhumerus -14.0424 -18.7632 -5.66709
rradius 23.9747
rwrist 8.80024
rhand 21.4412 5.1498
rfingers 7.12502
rthumb 45.8753 -17.9965
lclavicle -1.9133e-015 -1.11319e-014
lhumerus 53.3525 12.1094 8.4164
lradius 39.5259
lwrist -9.61741
lhand 17.3219 11.9855
lfingers 7.12502
lthumb 42.0326 36.5646
rfemur -57.2091 2.5616 33.5483
rtibia 40.0071
rfoot -43.3512 -35.1435
rtoes 30.7086
lfemur -12.7628 -4.8906 -23.0116
ltibia 29.3313
lfoot -17.4318 43.9093
ltoes 49.7689
340
root 1.32945 16.5757 28.2651 34.5488 4.68587 -1.56821
lowerback -16.5892 -1.89711 2.51178
upperback -12.8232 -2.7391 4.17879
thorax -4.37253 -1.38359 2.68021
lowerneck -9.18549 -0.448362 -0.833603
upperneck 44.7892 0.370841 -2.24298
head 18.4145 -0.298786 -0.858547
rclavicle -3.9496e-014 4.05521e-014
rhumerus -13.8909 -20.2153 -5.61939
rradius 23.5921
rwrist 9.74278
rhand 21.4635 5.49541
rfingers 7.12502
rthumb 45.8959 -17.6423
lclavicle -3.9496e-014 4.05521e-014
lhumerus 53.5493 12.5636 8.61536
lradius 39.432
lwrist -10.1037
lhand 17.3747 11.8578
lfingers 7.12502
lthumb 42.0821 36.4203
rfemur -57.3082 2.71044 33.0373
rtibia 40.0332
rfoot -43.1808 -35.5395
rtoes 30.6325
lfemur -12.7838 -5.00349 -23.4394
ltibia 29.3062
lfoot -19.0763 43.6187
ltoes 50.2763
341
root 1.32705 16.5759 28.2749 34.5527 4.5067 -1.35149
lowerback -16.6903 -1.96466 2.13826
upperback -12.5952 -2.80008 4.14347
thorax -4.04594 -1.3914 2.82956
lowerneck -9.59301 -0.450088 -0.983503
upperneck 44.8005 0.311378 -1.99818
head 18.5323 -0.318148 -0.727503
rclavicle -9.39258e-015 2.38542e-015
rhumerus -13.6509 -21.2649 -5.73314
rradius 23.3925
rwrist 10.2815
rhand 21.4743 5.54144
rfingers 7.12502
rthumb 45.9059 -17.5922
lclavicle -9.39258e-015 2.38542e-015
lhumerus 53.4954 12.974 8.46829
lradius 39.4655
lwrist -10.2405
lhand 17.4849 12.0546
lfingers 7.12502
lthumb 42.1852 36.5822
rfemur -57.3181 2.95456 32.5895
rtibia 40.068
rfoot -43.2015 -35.8015
rtoes 30.7529
lfemur -12.7509 -5.11437 -23.76
ltibia 29.2553
lfoot -18.1392 44.1437
ltoes 49.9778
342
root 1.32902 16.5801 28.2872 34.4639 4.60288 -1.40887
lowerback -16.7434 -1.97776 2.21746
upperback -12.386 -2.83842 4.14077
thorax -3.78933 -1.41631 2.76609
lowerneck -9.64621 -0.49821 -1.24828
upperneck 44.6202 0.137914 -1.60351
head 18.4286 -0.380738 -0.517302
rclavicle 2.70844e-015 7.95139e-016
rhumerus -13.5189 -22.133 -5.7567
rradius 23.1513
rwrist 10.79
rhand 21.5367 5.87047
rfingers 7.12502
rthumb 45.9638 -17.2391
lclavicle 2.70844e-015 7.95139e-016
lhumerus 53.5132 13.2649 8.25929
lradius 39.4022
lwrist -10.2057
lhand 17.5407 12.1324
lfingers 7.12502
lthumb 42.2376 36.6423
rfemur -57.1979 2.79418 32.768
rtibia 40.0992
rfoot -43.0265 -36.0581
rtoes 29.998
lfemur -12.6547 -5.21033 -23.6785
ltibia 29.1779
lfoot -15.3838 45.1557
ltoes 49.0078
343
root 1.32646 16.5804 28.3014 34.4368 4.6254 -1.44831
lowerback -16.7482 -1.95139 2.23808
upperback -12.4143 -2.80495 4.09451
thorax -3.82247 -1.40219 2.71091
lowerneck -9.24816 -0.509954 -1.20938
upperneck 44.3263 0.0821361 -1.56644
head 18.1334 -0.389115 -0.50895
rclavicle 1.78906e-015 -3.02153e-014
rhumerus -13.5746 -22.574 -5.65461
rradius 22.8523
rwrist 11.3033
rhand 21.6207 6.19946
rfingers 7.12502
rthumb 46.0418 -16.8776
lclavicle 1.78906e-015 -3.02153e-014
lhumerus 53.4772 13.0245 7.88815
lradius 39.4304
lwrist -9.84424
lhand 17.3737 12.3943
lfingers 7.12502
lthumb 42.0811 36.9571
rfemur -57.0924 3.04778 32.6589
rtibia 40.0871
rfoot -43.6113 -36.0481
rtoes 30.3295
lfemur -12.6191 -5.24172 -23.6391
ltibia 29.1644
lfoot -14.3913 45.4677
ltoes 48.6012
344
root 1.32026 16.575 28.3128 34.5453 4.32577 -1.21519
lowerback -16.7794 -1.93332 1.83522
upperback -12.5787 -2.72757 3.98295
thorax -3.97542 -1.34093 2.83406
lowerneck -8.8496 -0.53075 -1.19897
upperneck 44.3158 0.0373721 -1.56404
head 18.0187 -0.403776 -0.514533
rclavicle -9.93923e-015 1.27222e-014
rhumerus -13.7971 -21.682 -5.57688
rradius 22.9077
rwrist 10.7133
rhand 21.6015 6.12438
rfingers 7.12502
rthumb 46.0239 -16.9602
lclavicle -9.93923e-015 1.27222e-014
lhumerus 53.4508 12.701 7.83098
lradius 39.4723
lwrist -9.71866
lhand 17.3293 12.4515
lfingers 7.12502
lthumb 42.0395 37.0284
rfemur -57.1472 3.47542 32.114
rtibia 40.0361
rfoot -43.9174 -36.1763
rtoes 30.9197
lfemur -12.7483 -5.16244 -24.0312
ltibia 29.2193
lfoot -12.9581 45.8559
ltoes 47.7808
